{"title":"Yeralti (2012 - Zeki Demirkubuz) XviD","uid":7799443,"size":1628025459,"categoryP":"video","categoryS":"movies","magnet":"?xt=urn:btih:6d6b9273b65e5388fbced33049b122a385e72338&amp;dn=Yeralti+%282012+-+Zeki+Demirkubuz%29+XviD&amp;tr=udp%3A%2F%2Ftracker.openbittorrent.com%3A80&amp;tr=udp%3A%2F%2Fopen.demonii.com%3A1337&amp;tr=udp%3A%2F%2Ftracker.coppersurfer.tk%3A6969&amp;tr=udp%3A%2F%2Fexodus.desync.com%3A6969","seeders":5,"leechers":1,"uploader":"rpessoa","files":4,"time":1352242000,"description":"A man's life, thoughts, feelings and his very own darkness... Adapted from Dostoevsky's novel &quot;Notes from Undergroud&quot;, Demirkubuz follows Muharrem as he gets himself invited to a party where he is not welcome, just to find himself disgusted. Written by esec\n\nGeneral \nComplete name : Zeki Demirkubuz - Yeralti (2012)Yeralti.avi \nFormat : AVI \nFormat/Info : Audio Video Interleave \nFile size : 1.51 GiB \nDuration : 1h 45mn \nOverall bit rate : 2 041 Kbps \nWriting application : VirtualDubMod 1.5.10.2 (build 2540/release) \nWriting library : VirtualDubMod build 2540/release \n\nVideo \nID : 0 \nFormat : MPEG-4 Visual \nFormat profile : Advanced Simple@L5 \nFormat settings, BVOP : 1 \nFormat settings, QPel : No \nFormat settings, GMC : No warppoints \nFormat settings, Matrix : Default (MPEG) \nCodec ID : XVID \nCodec ID/Hint : XviD \nDuration : 1h 45mn \nBit rate : 1 840 Kbps \nWidth : 704 pixels \nHeight : 304 pixels \nDisplay aspect ratio : 2.35:1 \nFrame rate : 25.000 fps \nColor space : YUV \nChroma subsampling : 4:2:0 \nBit depth : 8 bits \nScan type : Progressive \nCompression mode : Lossy \nBits/(Pixel*Frame) : 0.344 \nStream size : 1.36 GiB (90%) \nWriting library : XviD 64 \n\nAudio \nID : 1 \nFormat : AC-3 \nFormat/Info : Audio Coding 3 \nMode extension : CM (complete main) \nFormat settings, Endianness : Big \nCodec ID : 2000 \nDuration : 1h 45mn \nBit rate mode : Constant \nBit rate : 192 Kbps \nChannel(s) : 2 channels \nChannel positions : Front: L R \nSampling rate : 48.0 KHz \nBit depth : 16 bits \nCompression mode : Lossy \nStream size : 145 MiB (9%) \nAlignment : Split accross interleaves \nInterleave, duration : 40 ms (1.00 video frame) \nInterleave, preload duration : 500 ms \n\nMy rip.\n\nSUBS: English, Turkish and Portuguese","torrent":{"xt":"urn:btih:6d6b9273b65e5388fbced33049b122a385e72338","amp;dn":"Yeralti+%282012+-+Zeki+Demirkubuz%29+XviD","amp;tr":["udp%3A%2F%2Ftracker.openbittorrent.com%3A80","udp%3A%2F%2Fopen.demonii.com%3A1337","udp%3A%2F%2Ftracker.coppersurfer.tk%3A6969","udp%3A%2F%2Fexodus.desync.com%3A6969"],"infoHash":"6d6b9273b65e5388fbced33049b122a385e72338","infoHashBuffer":{"type":"Buffer","data":[109,107,146,115,182,94,83,136,251,206,211,48,73,177,34,163,133,231,35,56]},"announce":[],"urlList":[]}}